<svg xmlns="http://www.w3.org/2000/svg" xmlns:xlink="http://www.w3.org/1999/xlink" style="position:absolute;width:0;height:0;">

  <!-- ICON: CHEVRON DOWN -->
  <symbol viewBox="0 0 448 512" id="icon-chevron-down" aria-hidden="true">
    <title>Chevron down</title>
    <path d="M207.029 381.476L12.686 187.132c-9.373-9.373-9.373-24.569 0-33.941l22.667-22.667c9.357-9.357 24.522-9.375 33.901-.04L224 284.505l154.745-154.021c9.379-9.335 24.544-9.317 33.901.04l22.667 22.667c9.373 9.373 9.373 24.569 0 33.941L240.971 381.476c-9.373 9.372-24.569 9.372-33.942 0z" />
  </symbol>

  <!-- ICON: FACEBOOK -->
  <symbol viewBox="0 0 24 24" id="icon-facebook" aria-hidden="true">
    <title>Facebook</title>
    <path d="M9 8H6v4h3v12h5V12h3.642L18 8h-4V6.333C14 5.378 14.192 5 15.115 5H18V0h-3.808C10.596 0 9 1.583 9 4.615V8z" />
  </symbol>

  <!-- ICON: INSTAGRAM -->
  <symbol viewBox="0 0 24 24" id="icon-instagram" aria-hidden="true">
    <title>Instagram</title>
    <path d="M12 2.163c3.204 0 3.584.012 4.85.07 3.252.148 4.771 1.691 4.919 4.919.058 1.265.069 1.645.069 4.849 0 3.205-.012 3.584-.069 4.849-.149 3.225-1.664 4.771-4.919 4.919-1.266.058-1.644.07-4.85.07-3.204 0-3.584-.012-4.849-.07-3.26-.149-4.771-1.699-4.919-4.92-.058-1.265-.07-1.644-.07-4.849 0-3.204.013-3.583.07-4.849.149-3.227 1.664-4.771 4.919-4.919 1.266-.057 1.645-.069 4.849-.069zM12 0C8.741 0 8.333.014 7.053.072 2.695.272.273 2.69.073 7.052.014 8.333 0 8.741 0 12c0 3.259.014 3.668.072 4.948.2 4.358 2.618 6.78 6.98 6.98C8.333 23.986 8.741 24 12 24c3.259 0 3.668-.014 4.948-.072 4.354-.2 6.782-2.618 6.979-6.98.059-1.28.073-1.689.073-4.948 0-3.259-.014-3.667-.072-4.947-.196-4.354-2.617-6.78-6.979-6.98C15.668.014 15.259 0 12 0zm0 5.838a6.162 6.162 0 1 0 0 12.324 6.162 6.162 0 0 0 0-12.324zM12 16a4 4 0 1 1 0-8 4 4 0 0 1 0 8zm6.406-11.845a1.44 1.44 0 1 0 0 2.881 1.44 1.44 0 0 0 0-2.881z"/>
  </symbol>

  <!-- ICON: LINKEDIN -->
  <symbol viewBox="0 0 24 24" id="icon-linkedin" aria-hidden="true">
    <title>LinkedIn</title>
    <path d="M4.98 3.5C4.98 4.881 3.87 6 2.5 6S.02 4.881.02 3.5C.02 2.12 1.13 1 2.5 1s2.48 1.12 2.48 2.5zM5 8H0v16h5V8zm7.982 0H8.014v16h4.969v-8.399c0-4.67 6.029-5.052 6.029 0V24H24V13.869c0-7.88-8.922-7.593-11.018-3.714V8z"/>
  </symbol>

  <!-- ICON: PINTEREST -->
  <symbol viewBox="0 0 24 24" id="icon-pinterest" aria-hidden="true">
    <title>Pinterest</title>
    <path d="M8.616 23.47c1.066.344 2.63-.857 3.81-.857C17.614 18.92 23 19.075 23 13c0-6.075-4.925-11-11-11S1 6.925 1 13c0 4.894 3.197 9.042 7.616 10.47z" fill="transparent"/>
    <path d="M0 12c0 5.084 3.163 9.426 7.627 11.174-.105-.95-.2-2.405.042-3.442.217-.936 1.406-5.965 1.406-5.965s-.36-.72-.36-1.78c0-1.67.968-2.915 2.172-2.915 1.024 0 1.518.768 1.518 1.69 0 1.03-.655 2.57-.993 3.995-.283 1.195.598 2.17 1.776 2.17 2.132 0 3.772-2.25 3.772-5.496 0-2.872-2.065-4.882-5.013-4.882-3.415 0-5.42 2.562-5.42 5.208 0 1.032.398 2.138.894 2.74a.356.356 0 0 1 .083.343c-.09.378-.293 1.193-.333 1.36-.053.22-.174.266-.4.16-1.5-.697-2.437-2.89-2.437-4.65 0-3.784 2.75-7.26 7.93-7.26 4.16 0 7.396 2.966 7.396 6.93 0 4.136-2.607 7.464-6.227 7.464-1.215 0-2.36-.63-2.75-1.378 0 0-.602 2.292-.748 2.853-.27 1.04-1.002 2.348-1.49 3.145C9.57 23.812 10.762 24 12 24c6.627 0 12-5.372 12-12 0-6.627-5.373-12-12-12S0 5.373 0 12z"/>
  </symbol>

  <!-- ICON: TWITTER -->
  <symbol viewBox="0 0 24 24" id="icon-twitter" aria-hidden="true">
    <title>Twitter</title>
    <path d="M24 4.557a9.83 9.83 0 0 1-2.828.775 4.932 4.932 0 0 0 2.165-2.724 9.864 9.864 0 0 1-3.127 1.195 4.916 4.916 0 0 0-3.594-1.555c-3.179 0-5.515 2.966-4.797 6.045A13.978 13.978 0 0 1 1.671 3.149a4.93 4.93 0 0 0 1.523 6.574 4.903 4.903 0 0 1-2.229-.616c-.054 2.281 1.581 4.415 3.949 4.89a4.935 4.935 0 0 1-2.224.084 4.928 4.928 0 0 0 4.6 3.419A9.9 9.9 0 0 1 0 19.54a13.94 13.94 0 0 0 7.548 2.212c9.142 0 14.307-7.721 13.995-14.646A10.025 10.025 0 0 0 24 4.557z"/>
  </symbol>

  <!-- ICON: YOUTUBE -->
  <symbol viewBox="0 0 24 24" id="icon-youtube" aria-hidden="true">
    <title>YouTube</title>
    <path d="M19.615 3.184c-3.604-.246-11.631-.245-15.23 0C.488 3.45.029 5.804 0 12c.029 6.185.484 8.549 4.385 8.816 3.6.245 11.626.246 15.23 0C23.512 20.55 23.971 18.196 24 12c-.029-6.185-.484-8.549-4.385-8.816zM9 16V8l8 3.993L9 16z"/>
  </symbol>

</svg>
