<svg xmlns="http://www.w3.org/2000/svg" viewBox="0 0 200 35" id="AccuLogo" class="svg svg--logo" role="img">
  <title>AccuTheme</title>
  <path fill="currentColor" d="M41.25 1.76L30.29 34h8.12l1.94-6.76h10l2 6.76h8.12l-11-32.25zm1 19.17l1.85-6.27c.58-2 1.3-5.54 1.3-5.54h.09s.73 3.51 1.31 5.54l1.8 6.27zm35 5.87c-6 0-9.11-4.92-9.11-9.7S71 7.9 77.2 7.9c4.46 0 8.07 3.29 8.07 3.29l3.65-5.95S84.82.68 76.84.68c-9.7 0-16.91 7.22-16.91 16.6 0 9.56 6.81 16.72 16.91 16.72a17.71 17.71 0 0013-5.41l-4.06-5.77s-3.7 4-8.57 4zm38.15-4a14 14 0 01-2.46 2 11.43 11.43 0 01-6.1 2 8.59 8.59 0 01-6.84-3.06 10.46 10.46 0 01-2.32-6.65 9.59 9.59 0 012.24-6.34 8.75 8.75 0 016.87-2.85 11.9 11.9 0 015.71 1.64 13.68 13.68 0 012.36 1.65l1.82-3 1.83-3A13 13 0 00115.46 3a18.28 18.28 0 00-9-2.28 17 17 0 00-12.13 4.74 16.4 16.4 0 00-4.82 11.82 16.68 16.68 0 004.67 12A16.86 16.86 0 00106.42 34a18.16 18.16 0 009.66-2.71 14.93 14.93 0 003.33-2.7l-2-2.89-2-2.88zm24.76-1.22c0 3.38-2.2 5.19-5.59 5.19s-5.59-1.81-5.59-5.19V1.22H121v20.39c0 7.26 5.32 12.4 13.53 12.4S148 28.87 148 21.61V1.22h-7.9z"/>
  <path fill="#0767b1" d="M157.31 35h8.29l11.73-35H169zm32.62-35h-9.43l10.07 17.51L180.51 35h9.43L200 17.51zM10.18 0L0 17.51 10.16 35h9.54L9.53 17.5 19.7 0z"/>
</svg>
